<?xml version="1.0" encoding="utf-8"?>
<!-- Generated by IcoMoon.io -->
<!DOCTYPE svg PUBLIC "-//W3C//DTD SVG 1.1//EN" "http://www.w3.org/Graphics/SVG/1.1/DTD/svg11.dtd">
<svg version="1.1" xmlns="http://www.w3.org/2000/svg" xmlns:xlink="http://www.w3.org/1999/xlink" width="512" height="512" viewBox="0 0 512 512">
<g>
</g>
	<path d="M6100.562 12540.611l-24.361 282.215h55.266l-21.125-282.215z" fill="#000000" />
	<path d="M6150.686 12475.331c0 24.906-20.19 45.097-45.097 45.097s-45.097-20.191-45.097-45.097c0-24.906 20.19-45.097 45.097-45.097 24.907 0 45.097 20.191 45.097 45.097z" fill="#000000" />
	<path d="M6050.314 12562.914c-28.754-18.79-45.916-50.462-45.916-84.726 0-35.072 17.797-67.154 47.606-85.811l-10.864-17.357c-35.84 22.425-57.231 60.989-57.231 103.168 0 41.195 20.633 79.289 55.194 101.878l11.213-17.152z" fill="#000000" />
	<path d="M6155.684 12390.267c31.498 17.992 51.056 51.671 51.056 87.91 0 35.604-19.036 68.987-49.705 87.142l10.435 17.623c36.864-21.822 59.761-61.962 59.761-104.755 0-43.571-23.521-84.070-61.378-105.698l-10.168 17.776z" fill="#000000" />
	<path d="M6028.114 12605.481c-44.8-27.32-71.537-74.906-71.537-127.303 0-47.145 21.596-90.501 59.269-118.958l-12.339-16.343c-42.844 32.359-67.41 81.684-67.41 135.301 0 59.586 30.413 113.715 81.346 144.793l10.67-17.49z" fill="#000000" />
	<path d="M6192.824 12357.366c38.676 27.996 61.767 73.175 61.767 120.811 0 52.429-28.047 101.602-73.195 128.317l10.435 17.623c51.354-30.382 83.251-86.313 83.251-145.941 0-54.19-26.256-105.564-70.236-137.4l-12.022 16.589z" fill="#000000" />
	<path d="M255.98 16.261c-137.502 0-248.996 107.326-248.996 239.749 0 132.393 111.504 239.728 248.996 239.728 137.523 0 249.037-107.335 249.037-239.728 0-132.423-111.513-239.749-249.037-239.749zM253.163 117.996c108.964 0 196.598 45.107 196.598 86.692h-394.66c0-41.575 89.037-86.692 198.062-86.692zM231.495 216.586l-46.899 32.481-52.316-34.284 99.215 1.802zM139.919 270.49c13.179 1.116 27.556 2.079 43.079 2.786 62.136 2.826 168.079-3.051 286.884-22.108l-48.64 36.659-43.663-12.882-46.858 22.599-36.68-17.94-44.124 20.93-38.922-16.456-42.178 11.673-34.898-17.654-50.135 13.466-41.697-34.673c-0.010 0.010 35.492 8.397 97.833 13.599zM249.518 393.994c-108.984 0-195.635-45.783-195.635-87.368h394.68c0 41.584-90.061 87.368-199.045 87.368z" fill="#000000" />
</svg>
